<?xml version="1.0" encoding="utf-8"?>
<!-- Generator: Adobe Illustrator 23.0.0, SVG Export Plug-In . SVG Version: 6.00 Build 0)  -->
<svg version="1.1" id="Layer_1" xmlns="http://www.w3.org/2000/svg" xmlns:xlink="http://www.w3.org/1999/xlink" x="0px" y="0px"
	 viewBox="0 0 300 73" style="enable-background:new 0 0 300 73;" xml:space="preserve">
<style type="text/css">
	.st0{fill:#FFFFFF;}
	.st1{enable-background:new    ;}
</style>
<g>
	<g>
		<g>
			<path class="st0" d="M1.9,31.4v-6.3L27,13.5v7.8L11.4,28v0.5L27,35.2V43L1.9,31.4z"/>
			<path class="st0" d="M62.3,37.1c-1.3,2.5-3.1,4.6-5.4,6.1s-5.2,2.4-8.7,2.4c-2.3,0-4.4-0.4-6.4-1.2c-1.9-0.8-3.5-1.9-5-3.3
				c-1.4-1.3-2.4-3-3.2-5c-0.8-1.9-1.2-4-1.2-6.4c0-2.3,0.4-4.4,1.2-6.4s1.9-3.6,3.3-5c1.4-1.4,3.1-2.5,5-3.3s4-1.2,6.4-1.2
				c3.5,0,6.3,0.8,8.7,2.4s4.1,3.6,5.2,6.1l-7.4,3.1C54,24.1,53.1,23,52,22.3s-2.4-1-4-1c-1,0-2,0.2-3,0.6c-0.9,0.4-1.7,0.9-2.4,1.7
				c-0.7,0.7-1.3,1.7-1.7,2.7s-0.6,2.2-0.6,3.5s0.2,2.4,0.6,3.5c0.4,1,0.9,2,1.7,2.7c0.7,0.7,1.5,1.3,2.4,1.7s1.9,0.6,3,0.6
				c1.7,0,3.1-0.4,4.3-1.1c1.2-0.8,2-1.8,2.8-3.2L62.3,37.1z"/>
			<path class="st0" d="M89,41.1h-0.5c-0.7,1.3-1.9,2.4-3.4,3.2c-1.6,0.9-3.5,1.3-5.7,1.3c-1.9,0-3.7-0.4-5.4-1.2
				c-1.7-0.8-3.2-1.9-4.6-3.3c-1.3-1.4-2.4-3.1-3.1-5s-1.2-4.1-1.2-6.4s0.4-4.4,1.2-6.4s1.8-3.6,3.1-5s2.8-2.5,4.6-3.3
				c1.7-0.8,3.5-1.2,5.4-1.2c2.3,0,4.2,0.5,5.7,1.3c1.6,0.9,2.7,2,3.4,3.2H89L88.5,14V1.2h8v43.5H89V41.1z M81,38.3c1,0,2-0.2,3-0.6
				c0.9-0.4,1.8-0.9,2.5-1.7c0.7-0.7,1.3-1.7,1.7-2.7c0.5-1,0.6-2.3,0.6-3.5c0-1.3-0.2-2.5-0.6-3.5c-0.5-1-1-2-1.7-2.7
				C85.8,23,85,22.4,84,22c-0.9-0.4-2-0.6-3-0.6s-2,0.2-3,0.6c-0.9,0.4-1.8,0.9-2.5,1.7c-0.7,0.7-1.3,1.7-1.7,2.7
				c-0.5,1-0.6,2.2-0.6,3.5s0.2,2.4,0.6,3.5c0.5,1,1,2,1.7,2.7s1.6,1.3,2.5,1.7C79,38.1,79.9,38.3,81,38.3z"/>
			<path class="st0" d="M131.1,37.5c-1.3,2.4-3.2,4.4-5.6,5.9s-5.2,2.3-8.5,2.3c-2.3,0-4.3-0.4-6.3-1.2c-1.9-0.8-3.6-1.9-5-3.3
				c-1.4-1.4-2.5-3.1-3.3-5s-1.2-4-1.2-6.4c0-2.1,0.4-4.2,1.2-6.1c0.8-1.9,1.8-3.6,3.2-5c1.3-1.4,3-2.6,4.9-3.5s3.9-1.3,6.2-1.3
				c2.4,0,4.5,0.4,6.4,1.2s3.4,1.9,4.6,3.3c1.3,1.4,2.2,3.1,2.8,5s0.9,3.9,0.9,6.2c0,0.3,0,0.6,0,0.7c-0.1,0.2-0.1,0.5-0.1,0.6
				c-0.1,0.2-0.1,0.4-0.1,0.6H109c0.2,1.2,0.5,2.3,1,3.1c0.5,0.9,1.1,1.6,1.9,2.2c0.8,0.6,1.6,1,2.4,1.3s1.8,0.4,2.8,0.4
				c1.8,0,3.3-0.4,4.5-1.3s2.1-1.9,2.8-3.1L131.1,37.5z M123.9,26c-0.1-0.6-0.2-1.1-0.6-1.7c-0.3-0.6-0.8-1.3-1.3-1.8
				s-1.3-1-2.2-1.4s-1.9-0.6-3.1-0.6c-1.7,0-3.2,0.5-4.5,1.5c-1.3,0.9-2.2,2.4-2.8,4.1L123.9,26L123.9,26z"/>
			<path class="st0" d="M136.9,43v-7.8l15.7-6.7V28l-15.7-6.7v-7.8l25.2,11.6v6.3L136.9,43z"/>
		</g>
		<g>
			<path class="st0" d="M19.8,54.3H23v17.1h-3.2V54.3z"/>
			<path class="st0" d="M31.2,54.3H35l6.8,11.5H42l-0.2-3.3v-8.2H45v17.1h-3.4l-7.3-12h-0.2l0.2,3.3v8.8h-3.1
				C31.2,71.5,31.2,54.3,31.2,54.3z"/>
			<path class="st0" d="M58.4,71.8c-0.7,0-1.4-0.1-2.1-0.3c-0.6-0.2-1.3-0.6-1.8-0.9c-0.6-0.4-1-0.9-1.4-1.5s-0.7-1.3-0.9-2.1
				l3.1-1.2c0.2,0.9,0.6,1.6,1.2,2.1s1.3,0.9,2.2,0.9c0.3,0,0.6-0.1,0.9-0.2c0.3-0.1,0.6-0.2,0.9-0.4c0.2-0.2,0.5-0.4,0.6-0.6
				c0.2-0.2,0.2-0.6,0.2-0.9S61.1,66,61,65.8s-0.3-0.5-0.6-0.7c-0.2-0.2-0.6-0.5-1-0.6c-0.4-0.2-0.9-0.4-1.6-0.6l-1-0.4
				c-0.5-0.2-0.9-0.4-1.4-0.6c-0.5-0.2-0.9-0.6-1.3-0.9c-0.4-0.4-0.7-0.9-0.9-1.3c-0.2-0.6-0.4-1.1-0.4-1.7s0.2-1.3,0.4-1.9
				c0.2-0.6,0.6-1.1,1.1-1.5c0.5-0.5,1.1-0.8,1.7-1c0.7-0.2,1.4-0.4,2.3-0.4s1.6,0.1,2.2,0.3s1.2,0.6,1.6,0.9c0.5,0.4,0.8,0.8,1,1.2
				s0.5,0.9,0.6,1.2L61,58.7c-0.2-0.5-0.5-0.9-0.9-1.3c-0.4-0.4-1-0.6-1.7-0.6s-1.3,0.2-1.7,0.5c-0.5,0.3-0.7,0.8-0.7,1.3
				s0.2,0.9,0.6,1.3c0.5,0.4,1.2,0.7,2.1,1l1.1,0.4c0.7,0.2,1.3,0.6,1.9,0.8c0.6,0.3,1,0.7,1.4,1.1s0.7,0.9,0.9,1.5s0.3,1.2,0.3,1.9
				c0,0.9-0.2,1.7-0.6,2.3c-0.4,0.6-0.8,1.2-1.3,1.6s-1.2,0.7-1.9,0.9C59.9,71.7,59.2,71.8,58.4,71.8z"/>
			<path class="st0" d="M71.7,54.3H75v17.1h-3.2V54.3H71.7z"/>
			<path class="st0" d="M91,62h8.3c0.1,0.2,0.1,0.4,0.2,0.7c0,0.2,0.1,0.6,0.1,0.8c0,1.1-0.2,2.1-0.5,3.1c-0.3,0.9-0.9,1.8-1.6,2.6
				c-0.8,0.8-1.7,1.4-2.8,1.9s-2.3,0.6-3.6,0.6c-1.3,0-2.4-0.2-3.5-0.6c-1.1-0.5-2-1.1-2.8-1.9s-1.4-1.7-2-2.8
				c-0.5-1.1-0.7-2.3-0.7-3.5c0-1.3,0.2-2.4,0.7-3.5s1.1-2,2-2.8c0.8-0.8,1.7-1.4,2.8-1.9s2.3-0.6,3.5-0.6c1.4,0,2.6,0.2,3.7,0.7
				s2,1.1,2.8,2L95.4,59c-0.6-0.6-1.2-1-1.9-1.3c-0.7-0.3-1.5-0.5-2.4-0.5c-0.8,0-1.5,0.2-2.2,0.4c-0.7,0.3-1.3,0.7-1.8,1.2
				c-0.6,0.5-0.9,1.1-1.3,1.8s-0.5,1.5-0.5,2.4s0.2,1.7,0.5,2.4s0.7,1.3,1.3,1.8c0.6,0.5,1.2,0.9,1.8,1.2c0.7,0.3,1.4,0.4,2.3,0.4
				s1.7-0.2,2.3-0.4s1.2-0.6,1.6-1c0.3-0.3,0.6-0.6,0.8-1.1c0.2-0.5,0.4-0.9,0.6-1.5H91V62z"/>
			<path class="st0" d="M107,54.3h3.2v6.8h7.2v-6.8h3.2v17.1h-3.2v-7.2h-7.2v7.2H107V54.3z"/>
			<path class="st0" d="M132.5,71.4v-14h-4.8v-3.1h12.8v3.1h-4.8v14H132.5L132.5,71.4z"/>
		</g>
	</g>
	<g class="st1">
		<path class="st0" d="M165.8,60.9c-1.4,0-2.6-0.5-3.6-1.4c-0.9-0.9-1.3-2.2-1.3-3.7c0-1.4,0.4-2.6,1.3-3.7c0.9-0.9,2-1.4,3.4-1.4
			s2.5,0.4,3.4,1.3c0.8,0.9,1.3,2.2,1.3,3.8v0.1h-7.5c0,0.9,0.4,1.7,0.9,2.2c0.7,0.5,1.3,0.9,2.1,0.9c1.2,0,2.1-0.5,2.8-1.7l1.6,0.8
			c-0.4,0.8-1.1,1.4-1.8,1.8C167.6,60.4,166.7,60.9,165.8,60.9z M162.9,54.6h5.5c0-0.7-0.3-1.2-0.8-1.7s-1.2-0.7-2-0.7
			c-0.7,0-1.3,0.3-1.7,0.7C163.3,53.4,163,53.9,162.9,54.6z"/>
		<path class="st0" d="M176.4,60.6h-1.8l-3.8-9.6h2l2.8,7.5l0,0l2.9-7.5h2L176.4,60.6z"/>
		<path class="st0" d="M185.5,60.9c-1.4,0-2.6-0.5-3.6-1.4c-0.9-0.9-1.3-2.2-1.3-3.7c0-1.4,0.4-2.6,1.3-3.7c0.9-0.9,2-1.4,3.4-1.4
			s2.5,0.4,3.4,1.3c0.8,0.9,1.3,2.2,1.3,3.8v0.1h-7.5c0,0.9,0.4,1.7,0.9,2.2c0.7,0.5,1.3,0.9,2.1,0.9c1.2,0,2.1-0.5,2.8-1.7l1.6,0.8
			c-0.4,0.8-1.1,1.4-1.8,1.8C187.4,60.4,186.5,60.9,185.5,60.9z M182.6,54.6h5.5c0-0.7-0.3-1.2-0.8-1.7s-1.2-0.7-2-0.7
			c-0.7,0-1.3,0.3-1.7,0.7C183.2,53.4,182.8,53.9,182.6,54.6z"/>
		<path class="st0" d="M193.6,60.6h-1.8V51h1.7v1.6h0.1c0.1-0.5,0.5-0.9,1.2-1.3c0.7-0.4,1.2-0.5,1.7-0.5s0.9,0.1,1.3,0.3l-0.5,1.7
			c-0.3-0.1-0.5-0.1-1.1-0.1c-0.7,0-1.3,0.3-1.7,0.8c-0.5,0.5-0.8,1.2-0.8,2v5.3h-0.1V60.6z"/>
		<path class="st0" d="M207.7,51l-6.1,13.8h-1.8L202,60l-4-9h2l2.9,6.8l0,0l2.8-6.8H207.7z"/>
		<path class="st0" d="M212.7,60.8c-0.8,0-1.4-0.3-2-0.8c-0.5-0.5-0.8-1.2-0.8-2v-5.4h-1.7v-1.7h1.7V48h1.8v2.9h2.4v1.7h-2.4v4.7
			c0,0.7,0.1,1.1,0.4,1.3c0.3,0.3,0.5,0.4,0.8,0.4c0.1,0,0.3,0,0.4,0s0.3-0.1,0.4-0.1l0.5,1.6C213.8,60.6,213.2,60.8,212.7,60.8z"/>
		<path class="st0" d="M215.8,46.5h1.8V51l-0.1,1.3h0.1c0.3-0.5,0.7-0.9,1.3-1.2s1.2-0.5,1.7-0.5c1.2,0,2.1,0.4,2.8,1.1
			c0.7,0.7,0.9,1.6,0.9,2.9v6.1h-1.8V55c0-1.7-0.8-2.6-2.2-2.6c-0.8,0-1.3,0.3-1.8,0.9c-0.5,0.7-0.8,1.3-0.8,2.1v5.3h-1.8
			L215.8,46.5L215.8,46.5z"/>
		<path class="st0" d="M228.9,47.7c0,0.4-0.1,0.7-0.4,0.9c-0.3,0.3-0.5,0.4-0.9,0.4s-0.7-0.1-0.9-0.4s-0.4-0.5-0.4-0.9
			s0.1-0.7,0.4-0.9c0.3-0.3,0.5-0.4,0.9-0.4s0.7,0.1,0.9,0.4C228.7,47.1,228.9,47.3,228.9,47.7z M228.5,51v9.6h-1.8V51H228.5z"/>
		<path class="st0" d="M230.8,51h1.7v1.3h0.1c0.3-0.5,0.7-0.9,1.3-1.2c0.5-0.3,1.2-0.5,1.7-0.5c1.2,0,2.1,0.4,2.8,1.1
			c0.7,0.7,0.9,1.6,0.9,2.9v6.1h-1.8v-5.9c0-1.6-0.8-2.4-2.4-2.4c-0.7,0-1.3,0.3-1.8,0.9c-0.5,0.5-0.8,1.3-0.8,2.1v5.3h-1.8V51
			H230.8z"/>
		<path class="st0" d="M245.6,65.1c-0.5,0-1.1-0.1-1.4-0.3c-0.4-0.1-0.9-0.4-1.3-0.5c-0.4-0.1-0.7-0.5-1.1-0.9
			c-0.3-0.4-0.5-0.7-0.7-1.2l1.7-0.7c0.1,0.5,0.5,1.1,1.1,1.3c0.5,0.4,1.1,0.5,1.7,0.5c0.9,0,1.7-0.3,2.2-0.9
			c0.5-0.5,0.8-1.4,0.8-2.4v-0.9h-0.1c-0.4,0.5-0.8,0.9-1.4,1.2c-0.7,0.3-1.2,0.4-1.8,0.4c-1.3,0-2.4-0.5-3.3-1.4
			c-0.9-1.1-1.3-2.2-1.3-3.7c0-1.4,0.4-2.6,1.3-3.7s2-1.4,3.3-1.4c0.7,0,1.3,0.1,1.8,0.4c0.5,0.3,1.1,0.7,1.4,1.2h0.1v-1.3h1.7V60
			c0,1.6-0.4,2.8-1.3,3.7C248.2,64.7,247,65.1,245.6,65.1z M245.6,59.3c0.9,0,1.6-0.3,2.2-0.9c0.5-0.7,0.9-1.4,0.9-2.5
			s-0.3-1.8-0.9-2.5c-0.5-0.7-1.3-0.9-2.2-0.9s-1.6,0.3-2.2,0.9c-0.5,0.7-0.9,1.4-0.9,2.5s0.3,1.8,0.9,2.5
			C244,58.9,244.8,59.3,245.6,59.3z"/>
		<path class="st0" d="M261.4,60.9c-1.4,0-2.6-0.5-3.6-1.4c-0.9-1.1-1.4-2.2-1.4-3.7c0-1.4,0.5-2.8,1.4-3.7s2.1-1.4,3.6-1.4
			c0.9,0,1.8,0.3,2.6,0.8c0.8,0.5,1.3,1.2,1.7,2L264,54c-0.5-1.2-1.4-1.8-2.6-1.8c-0.8,0-1.6,0.4-2.1,1.1c-0.5,0.7-0.9,1.4-0.9,2.5
			c0,0.9,0.3,1.8,0.9,2.5s1.3,1.1,2.1,1.1c1.3,0,2.2-0.7,2.8-1.8l1.6,0.7c-0.4,0.9-0.9,1.6-1.7,2C263.2,60.6,262.3,60.9,261.4,60.9z
			"/>
		<path class="st0" d="M266.5,55.8c0-1.4,0.5-2.8,1.4-3.7s2.1-1.4,3.6-1.4s2.6,0.5,3.6,1.4c0.9,0.9,1.4,2.2,1.4,3.7
			c0,1.4-0.5,2.8-1.4,3.7s-2.1,1.4-3.6,1.4s-2.6-0.5-3.6-1.4C267.1,58.5,266.5,57.2,266.5,55.8z M268.4,55.8c0,1.1,0.3,1.8,0.9,2.5
			s1.3,0.9,2.2,0.9s1.6-0.3,2.2-0.9s0.9-1.4,0.9-2.5s-0.3-1.8-0.9-2.5c-0.7-0.7-1.3-0.9-2.2-0.9s-1.6,0.3-2.2,0.9
			C268.6,53.9,268.4,54.7,268.4,55.8z"/>
		<path class="st0" d="M282.1,60.9c-1.3,0-2.4-0.5-3.3-1.4c-0.9-1.1-1.3-2.2-1.3-3.7c0-1.4,0.4-2.6,1.3-3.7s2-1.4,3.3-1.4
			c0.7,0,1.3,0.1,2,0.4s1.1,0.7,1.3,1.2h0.1l-0.1-1.3v-4.5h1.8v14.1h-1.7v-1.3h-0.1c-0.3,0.5-0.8,0.9-1.3,1.2
			C283.5,60.6,282.9,60.9,282.1,60.9z M282.3,59.3c0.9,0,1.6-0.3,2.2-0.9c0.5-0.7,0.9-1.4,0.9-2.5s-0.3-1.8-0.9-2.5
			c-0.5-0.7-1.3-0.9-2.2-0.9s-1.6,0.3-2.2,0.9c-0.5,0.7-0.9,1.4-0.9,2.5s0.3,1.8,0.9,2.5C280.8,58.9,281.6,59.3,282.3,59.3z"/>
		<path class="st0" d="M293.5,60.9c-1.4,0-2.6-0.5-3.6-1.4s-1.3-2.2-1.3-3.7c0-1.4,0.4-2.6,1.3-3.7c0.9-0.9,2-1.4,3.4-1.4
			s2.5,0.4,3.4,1.3s1.3,2.2,1.3,3.8v0.1h-7.5c0,0.9,0.4,1.7,0.9,2.2s1.3,0.9,2.1,0.9c1.2,0,2.1-0.5,2.8-1.7l1.6,0.8
			c-0.4,0.8-1.1,1.4-1.8,1.8C295.4,60.6,294.6,60.9,293.5,60.9z M290.8,54.6h5.5c0-0.7-0.3-1.2-0.8-1.7c-0.5-0.4-1.2-0.7-2-0.7
			c-0.7,0-1.3,0.3-1.7,0.7C291.2,53.4,290.9,53.9,290.8,54.6z"/>
	</g>
	<circle class="st0" cx="150.9" cy="55.8" r="2.4"/>
</g>
</svg>
