<?xml version="1.0" encoding="utf-8"?>
<!-- Generator: Adobe Illustrator 23.0.0, SVG Export Plug-In . SVG Version: 6.00 Build 0)  -->
<svg version="1.1" id="Layer_1" xmlns="http://www.w3.org/2000/svg" xmlns:xlink="http://www.w3.org/1999/xlink" x="0px" y="0px"
	 viewBox="0 0 824.3 212.8" style="enable-background:new 0 0 824.3 212.8;" xml:space="preserve">
<style type="text/css">
	.st0{fill:#F9A629;}
	.st1{fill:#494949;}
	.st2{fill-rule:evenodd;clip-rule:evenodd;fill:url(#SVGID_1_);}
	.st3{fill-rule:evenodd;clip-rule:evenodd;fill:#DBDCDC;}
	.st4{fill-rule:evenodd;clip-rule:evenodd;fill:#494949;}
	.st5{fill-rule:evenodd;clip-rule:evenodd;fill:url(#SVGID_2_);}
	.st6{fill-rule:evenodd;clip-rule:evenodd;fill:url(#SVGID_3_);}
	.st7{fill-rule:evenodd;clip-rule:evenodd;fill:url(#SVGID_4_);}
</style>
<g>
	<g>
		<g>
			<path d="M165.1,45.5h15.6v86.1h-15.6V45.5z"/>
			<path d="M237.7,69.5h15.6v62.1h-15.6v-6.6c-3,2.9-6.1,5-9.2,6.3c-3.1,1.3-6.4,1.9-10,1.9c-8,0-15-3.1-20.8-9.3
				c-5.9-6.2-8.8-14-8.8-23.2c0-9.6,2.8-17.4,8.5-23.6c5.7-6.1,12.5-9.2,20.6-9.2c3.7,0,7.2,0.7,10.5,2.1c3.3,1.4,6.3,3.5,9.1,6.3
				V69.5z M221.4,82.3c-4.8,0-8.8,1.7-12,5.1c-3.2,3.4-4.8,7.8-4.8,13.1c0,5.4,1.6,9.8,4.9,13.2s7.2,5.2,12,5.2
				c4.9,0,9-1.7,12.2-5.1c3.2-3.4,4.8-7.9,4.8-13.4c0-5.4-1.6-9.8-4.8-13.1C230.4,84,226.3,82.3,221.4,82.3z"/>
			<path d="M263.5,69.5h47.6l-27.9,48.9h26.3v13.2h-50.2l28-48.9h-23.8V69.5z"/>
			<path d="M310.1,69.5H326l16.1,39l17.8-39h16l-38.9,84.8H321l12.8-27.4L310.1,69.5z"/>
			<path class="st0" d="M419.9,78.2l-9.6,9.6c-3.9-3.9-7.5-5.8-10.7-5.8c-1.8,0-3.1,0.4-4.1,1.1c-1,0.7-1.5,1.7-1.5,2.8
				c0,0.8,0.3,1.6,0.9,2.3s2.2,1.7,4.7,2.9l5.7,2.9c6,3,10.1,6,12.4,9.1c2.2,3.1,3.4,6.7,3.4,10.8c0,5.5-2,10.1-6.1,13.8
				c-4.1,3.7-9.5,5.5-16.3,5.5c-9.1,0-16.3-3.5-21.7-10.6l9.6-10.4c1.8,2.1,4,3.9,6.4,5.2c2.5,1.3,4.6,2,6.5,2c2.1,0,3.7-0.5,5-1.5
				c1.3-1,1.9-2.1,1.9-3.4c0-2.4-2.3-4.7-6.8-7l-5.3-2.6c-10-5.1-15.1-11.4-15.1-19c0-4.9,1.9-9.1,5.7-12.6
				c3.8-3.5,8.6-5.2,14.5-5.2c4,0,7.8,0.9,11.4,2.7C414.4,72.3,417.5,74.9,419.9,78.2z"/>
			<path class="st0" d="M430.5,45.5h15.5v30.3c3-2.6,6.1-4.6,9.2-5.9c3.1-1.3,6.2-2,9.4-2c6.2,0,11.4,2.1,15.6,6.4
				c3.6,3.7,5.4,9.1,5.4,16.3v41h-15.4v-27.2c0-7.2-0.3-12.1-1-14.6c-0.7-2.5-1.9-4.5-3.5-5.7c-1.7-1.3-3.7-1.9-6.1-1.9
				c-3.2,0-5.9,1-8.1,3.1c-2.3,2.1-3.8,4.9-4.7,8.6c-0.5,1.9-0.7,6.1-0.7,12.8v24.9h-15.5V45.5z"/>
			<path class="st0" d="M526.8,67.9c5.9,0,11.4,1.5,16.5,4.4c5.2,2.9,9.2,6.9,12.1,11.9s4.3,10.4,4.3,16.3c0,5.9-1.5,11.3-4.4,16.4
				c-2.9,5.1-6.9,9.1-11.9,12s-10.6,4.3-16.6,4.3c-8.9,0-16.5-3.2-22.8-9.5c-6.3-6.3-9.4-14-9.4-23.1c0-9.7,3.6-17.8,10.7-24.3
				C511.6,70.7,518.7,67.9,526.8,67.9z M527.1,82.6c-4.8,0-8.9,1.7-12.1,5.1s-4.8,7.7-4.8,12.9c0,5.4,1.6,9.8,4.8,13.1
				c3.2,3.3,7.2,5,12.1,5c4.9,0,8.9-1.7,12.2-5.1c3.2-3.4,4.9-7.7,4.9-13.1c0-5.3-1.6-9.7-4.8-13C536.1,84.3,532,82.6,527.1,82.6z"
				/>
			<path class="st0" d="M585,69.5v6.9c2.8-2.8,5.9-4.9,9.1-6.3c3.3-1.4,6.8-2.1,10.5-2.1c8.1,0,15,3.1,20.7,9.2
				c5.7,6.1,8.5,14,8.5,23.6c0,9.2-2.9,17-8.8,23.2c-5.9,6.2-12.8,9.3-20.8,9.3c-3.6,0-6.9-0.6-10-1.9c-3.1-1.3-6.1-3.4-9.2-6.3
				v29.3h-15.5V69.5H585z M601.4,82.3c-4.9,0-9,1.7-12.2,5c-3.2,3.3-4.9,7.7-4.9,13.1c0,5.5,1.6,10,4.9,13.4
				c3.2,3.4,7.3,5.1,12.2,5.1c4.8,0,8.8-1.7,12-5.2s4.9-7.9,4.9-13.2c0-5.3-1.6-9.7-4.8-13.1C610.3,84,606.3,82.3,601.4,82.3z"/>
			<path class="st0" d="M659.3,69.5v6.9c2.8-2.8,5.9-4.9,9.1-6.3c3.3-1.4,6.8-2.1,10.5-2.1c8.1,0,15,3.1,20.7,9.2
				c5.7,6.1,8.5,14,8.5,23.6c0,9.2-2.9,17-8.8,23.2c-5.9,6.2-12.8,9.3-20.8,9.3c-3.6,0-6.9-0.6-10-1.9c-3.1-1.3-6.1-3.4-9.2-6.3
				v29.3h-15.5V69.5H659.3z M675.7,82.3c-4.9,0-9,1.7-12.2,5c-3.2,3.3-4.9,7.7-4.9,13.1c0,5.5,1.6,10,4.9,13.4
				c3.2,3.4,7.3,5.1,12.2,5.1c4.8,0,8.8-1.7,12-5.2s4.9-7.9,4.9-13.2c0-5.3-1.6-9.7-4.8-13.1C684.6,84,680.6,82.3,675.7,82.3z"/>
			<path class="st0" d="M780.3,105.1h-50.1c0.7,4.4,2.7,7.9,5.8,10.5s7.1,3.9,12,3.9c5.8,0,10.8-2,15-6.1l13.1,6.2
				c-3.3,4.6-7.2,8.1-11.8,10.3s-10,3.3-16.3,3.3c-9.7,0-17.7-3.1-23.8-9.2c-6.1-6.1-9.2-13.8-9.2-23.1c0-9.5,3.1-17.3,9.2-23.6
				c6.1-6.3,13.8-9.4,23-9.4c9.8,0,17.7,3.1,23.9,9.4c6.1,6.3,9.2,14.5,9.2,24.8L780.3,105.1z M764.7,92.8c-1-3.5-3.1-6.3-6.1-8.4
				c-3-2.2-6.5-3.3-10.5-3.3c-4.3,0-8.2,1.2-11.4,3.7c-2.1,1.5-4,4.2-5.7,8H764.7z"/>
			<path class="st0" d="M786.4,69.5h13.4v7.8c1.4-3.1,3.4-5.4,5.8-7s5-2.4,7.9-2.4c2,0,4.1,0.5,6.3,1.6l-4.9,13.4
				c-1.8-0.9-3.3-1.4-4.5-1.4c-2.4,0-4.4,1.5-6.1,4.5c-1.7,3-2.5,8.8-2.5,17.5l0.1,3v25.1h-15.5V69.5z"/>
		</g>
		<g>
			<path class="st1" d="M250.3,191.7H234c0.2,1.4,0.9,2.6,1.9,3.4c1,0.8,2.3,1.3,3.9,1.3c1.9,0,3.5-0.7,4.9-2l4.3,2
				c-1.1,1.5-2.3,2.6-3.8,3.3c-1.5,0.7-3.2,1.1-5.3,1.1c-3.2,0-5.7-1-7.7-3c-2-2-3-4.5-3-7.5c0-3.1,1-5.6,3-7.7c2-2,4.5-3.1,7.5-3.1
				c3.2,0,5.8,1,7.8,3.1c2,2,3,4.7,3,8.1L250.3,191.7z M245.2,187.7c-0.3-1.1-1-2-2-2.7c-1-0.7-2.1-1.1-3.4-1.1
				c-1.4,0-2.7,0.4-3.7,1.2c-0.7,0.5-1.3,1.4-1.9,2.6H245.2z"/>
			<path class="st1" d="M252.2,180.1h5.2l5.1,11.9l5.1-11.9h5.1l-8.6,20.2h-3.3L252.2,180.1z"/>
			<path class="st1" d="M295.9,191.7h-16.3c0.2,1.4,0.9,2.6,1.9,3.4c1,0.8,2.3,1.3,3.9,1.3c1.9,0,3.5-0.7,4.9-2l4.3,2
				c-1.1,1.5-2.3,2.6-3.8,3.3c-1.5,0.7-3.2,1.1-5.3,1.1c-3.2,0-5.7-1-7.7-3c-2-2-3-4.5-3-7.5c0-3.1,1-5.6,3-7.7c2-2,4.5-3.1,7.5-3.1
				c3.2,0,5.8,1,7.8,3.1c2,2,3,4.7,3,8.1L295.9,191.7z M290.8,187.7c-0.3-1.1-1-2-2-2.7c-1-0.7-2.1-1.1-3.4-1.1
				c-1.4,0-2.7,0.4-3.7,1.2c-0.7,0.5-1.3,1.4-1.9,2.6H290.8z"/>
			<path class="st1" d="M298.8,180.1h4.3v2.5c0.5-1,1.1-1.8,1.9-2.3s1.6-0.8,2.6-0.8c0.7,0,1.3,0.2,2.1,0.5l-1.6,4.4
				c-0.6-0.3-1.1-0.4-1.5-0.4c-0.8,0-1.4,0.5-2,1.4s-0.8,2.9-0.8,5.7l0,1v8.2h-5V180.1z"/>
			<path class="st1" d="M309.9,180.1h5.2l5.2,12.7l5.8-12.7h5.2l-12.6,27.6h-5.2l4.2-8.9L309.9,180.1z"/>
			<path class="st1" d="M349.1,172.3h5.1v28h-5.1v-2.1c-1,0.9-2,1.6-3,2c-1,0.4-2.1,0.6-3.2,0.6c-2.6,0-4.9-1-6.8-3
				c-1.9-2-2.9-4.5-2.9-7.5c0-3.1,0.9-5.7,2.8-7.7c1.8-2,4.1-3,6.7-3c1.2,0,2.3,0.2,3.4,0.7c1.1,0.5,2,1.1,2.9,2.1V172.3z
				 M343.8,184.3c-1.6,0-2.9,0.6-3.9,1.7c-1,1.1-1.6,2.5-1.6,4.3c0,1.7,0.5,3.2,1.6,4.3c1.1,1.1,2.4,1.7,3.9,1.7
				c1.6,0,2.9-0.6,4-1.7c1-1.1,1.6-2.6,1.6-4.4c0-1.8-0.5-3.2-1.6-4.3C346.7,184.8,345.4,184.3,343.8,184.3z"/>
			<path class="st1" d="M374.2,180.1h5.1v20.2h-5.1v-2.1c-1,0.9-2,1.6-3,2c-1,0.4-2.1,0.6-3.2,0.6c-2.6,0-4.9-1-6.8-3
				c-1.9-2-2.9-4.5-2.9-7.5c0-3.1,0.9-5.7,2.8-7.7c1.8-2,4.1-3,6.7-3c1.2,0,2.3,0.2,3.4,0.7c1.1,0.5,2,1.1,2.9,2.1V180.1z
				 M368.9,184.3c-1.6,0-2.9,0.6-3.9,1.7c-1,1.1-1.6,2.5-1.6,4.3c0,1.7,0.5,3.2,1.6,4.3c1.1,1.1,2.4,1.7,3.9,1.7
				c1.6,0,2.9-0.6,4-1.7c1-1.1,1.6-2.6,1.6-4.4c0-1.8-0.5-3.2-1.6-4.3C371.8,184.8,370.5,184.3,368.9,184.3z"/>
			<path class="st1" d="M382.1,180.1h5.2l5.2,12.7l5.8-12.7h5.2l-12.6,27.6h-5.2l4.2-8.9L382.1,180.1z"/>
			<path class="st1" d="M419.8,195c0.8,0,1.5,0.3,2.1,0.8c0.6,0.6,0.9,1.2,0.9,2c0,0.8-0.3,1.5-0.9,2.1c-0.6,0.6-1.3,0.9-2.1,0.9
				c-0.8,0-1.5-0.3-2.1-0.9c-0.6-0.6-0.9-1.3-0.9-2.1c0-0.8,0.3-1.5,0.9-2C418.3,195.3,419,195,419.8,195z"/>
			<path class="st1" d="M458.1,184.2l-4.2,2.3c-0.8-0.8-1.6-1.4-2.4-1.7c-0.8-0.3-1.7-0.5-2.7-0.5c-1.9,0-3.4,0.6-4.6,1.7
				c-1.2,1.1-1.8,2.6-1.8,4.3c0,1.7,0.6,3.1,1.7,4.2s2.6,1.6,4.4,1.6c2.3,0,4-0.8,5.3-2.3l4,2.7c-2.2,2.8-5.2,4.2-9.2,4.2
				c-3.6,0-6.3-1.1-8.3-3.2c-2-2.1-3-4.6-3-7.4c0-2,0.5-3.8,1.5-5.4c1-1.6,2.3-2.9,4.1-3.9c1.8-0.9,3.7-1.4,5.9-1.4
				c2,0,3.8,0.4,5.4,1.2C455.8,181.6,457.1,182.7,458.1,184.2z"/>
			<path class="st1" d="M472.1,179.6c1.9,0,3.7,0.5,5.4,1.4c1.7,1,3,2.2,3.9,3.9c0.9,1.6,1.4,3.4,1.4,5.3c0,1.9-0.5,3.7-1.4,5.3
				c-0.9,1.7-2.2,3-3.9,3.9c-1.6,0.9-3.4,1.4-5.4,1.4c-2.9,0-5.4-1-7.4-3.1c-2-2.1-3.1-4.6-3.1-7.5c0-3.2,1.2-5.8,3.5-7.9
				C467.2,180.5,469.5,179.6,472.1,179.6z M472.2,184.4c-1.6,0-2.9,0.5-3.9,1.6c-1,1.1-1.6,2.5-1.6,4.2c0,1.8,0.5,3.2,1.6,4.3
				c1,1.1,2.3,1.6,3.9,1.6c1.6,0,2.9-0.5,4-1.7c1.1-1.1,1.6-2.5,1.6-4.2c0-1.7-0.5-3.1-1.6-4.2C475.1,184.9,473.8,184.4,472.2,184.4
				z"/>
			<path class="st1" d="M487,180.1h5.1v9.7c0,1.9,0.1,3.2,0.4,3.9c0.3,0.7,0.7,1.3,1.3,1.7c0.6,0.4,1.3,0.6,2.1,0.6
				c0.8,0,1.6-0.2,2.1-0.6c0.6-0.4,1-1,1.3-1.8c0.2-0.6,0.3-1.8,0.3-3.7v-9.9h5.1v8.6c0,3.5-0.3,5.9-0.8,7.2c-0.7,1.6-1.7,2.8-3,3.6
				c-1.3,0.8-3,1.3-5,1.3c-2.2,0-4-0.5-5.4-1.5c-1.4-1-2.3-2.4-2.9-4.1c-0.4-1.2-0.6-3.5-0.6-6.7V180.1z"/>
			<path class="st1" d="M529.5,184.2l-4.2,2.3c-0.8-0.8-1.6-1.4-2.4-1.7c-0.8-0.3-1.7-0.5-2.7-0.5c-1.9,0-3.4,0.6-4.6,1.7
				c-1.2,1.1-1.8,2.6-1.8,4.3c0,1.7,0.6,3.1,1.7,4.2s2.6,1.6,4.4,1.6c2.3,0,4-0.8,5.3-2.3l4,2.7c-2.2,2.8-5.2,4.2-9.2,4.2
				c-3.6,0-6.3-1.1-8.3-3.2c-2-2.1-3-4.6-3-7.4c0-2,0.5-3.8,1.5-5.4c1-1.6,2.3-2.9,4.1-3.9c1.8-0.9,3.7-1.4,5.9-1.4
				c2,0,3.8,0.4,5.4,1.2C527.2,181.6,528.5,182.7,529.5,184.2z"/>
			<path class="st1" d="M534.1,172.3h5v9.8c1-0.9,2-1.5,3-1.9c1-0.4,2-0.6,3-0.6c2,0,3.7,0.7,5.1,2.1c1.2,1.2,1.8,3,1.8,5.3v13.3h-5
				v-8.9c0-2.3-0.1-3.9-0.3-4.8c-0.2-0.8-0.6-1.4-1.1-1.9c-0.5-0.4-1.2-0.6-2-0.6c-1,0-1.9,0.3-2.6,1c-0.7,0.7-1.2,1.6-1.5,2.8
				c-0.1,0.6-0.2,2-0.2,4.2v8.1h-5V172.3z"/>
			<path class="st1" d="M570.3,195c0.8,0,1.5,0.3,2.1,0.8c0.6,0.6,0.9,1.2,0.9,2c0,0.8-0.3,1.5-0.9,2.1c-0.6,0.6-1.3,0.9-2.1,0.9
				c-0.8,0-1.5-0.3-2.1-0.9c-0.6-0.6-0.9-1.3-0.9-2.1c0-0.8,0.3-1.5,0.9-2C568.8,195.3,569.5,195,570.3,195z"/>
			<path class="st1" d="M601.2,183l-3.1,3.1c-1.3-1.3-2.4-1.9-3.5-1.9c-0.6,0-1,0.1-1.3,0.4c-0.3,0.2-0.5,0.5-0.5,0.9
				c0,0.3,0.1,0.5,0.3,0.8c0.2,0.2,0.7,0.5,1.5,0.9l1.9,0.9c2,1,3.3,1.9,4,3c0.7,1,1.1,2.2,1.1,3.5c0,1.8-0.7,3.3-2,4.5
				c-1.3,1.2-3.1,1.8-5.3,1.8c-2.9,0-5.3-1.2-7.1-3.5l3.1-3.4c0.6,0.7,1.3,1.3,2.1,1.7c0.8,0.4,1.5,0.6,2.1,0.6
				c0.7,0,1.2-0.2,1.6-0.5c0.4-0.3,0.6-0.7,0.6-1.1c0-0.8-0.7-1.5-2.2-2.3l-1.7-0.9c-3.3-1.6-4.9-3.7-4.9-6.2c0-1.6,0.6-3,1.8-4.1
				c1.2-1.1,2.8-1.7,4.7-1.7c1.3,0,2.5,0.3,3.7,0.9C599.4,181.1,600.4,181.9,601.2,183z"/>
			<path class="st1" d="M605.5,172.3h5v9.8c1-0.9,2-1.5,3-1.9c1-0.4,2-0.6,3-0.6c2,0,3.7,0.7,5.1,2.1c1.2,1.2,1.8,3,1.8,5.3v13.3h-5
				v-8.9c0-2.3-0.1-3.9-0.3-4.8c-0.2-0.8-0.6-1.4-1.1-1.9c-0.5-0.4-1.2-0.6-2-0.6c-1,0-1.9,0.3-2.6,1c-0.7,0.7-1.2,1.6-1.5,2.8
				c-0.1,0.6-0.2,2-0.2,4.2v8.1h-5V172.3z"/>
			<path class="st1" d="M637.8,179.6c1.9,0,3.7,0.5,5.4,1.4c1.7,1,3,2.2,3.9,3.9c0.9,1.6,1.4,3.4,1.4,5.3c0,1.9-0.5,3.7-1.4,5.3
				c-0.9,1.7-2.2,3-3.9,3.9c-1.6,0.9-3.4,1.4-5.4,1.4c-2.9,0-5.4-1-7.4-3.1c-2-2.1-3.1-4.6-3.1-7.5c0-3.2,1.2-5.8,3.5-7.9
				C632.8,180.5,635.2,179.6,637.8,179.6z M637.9,184.4c-1.6,0-2.9,0.5-3.9,1.6c-1,1.1-1.6,2.5-1.6,4.2c0,1.8,0.5,3.2,1.6,4.3
				c1,1.1,2.3,1.6,3.9,1.6c1.6,0,2.9-0.5,4-1.7c1.1-1.1,1.6-2.5,1.6-4.2c0-1.7-0.5-3.1-1.6-4.2C640.8,184.9,639.5,184.4,637.9,184.4
				z"/>
			<path class="st1" d="M657.7,180.1v2.2c0.9-0.9,1.9-1.6,3-2.1c1.1-0.5,2.2-0.7,3.4-0.7c2.6,0,4.9,1,6.7,3c1.8,2,2.8,4.5,2.8,7.7
				c0,3-1,5.5-2.9,7.5c-1.9,2-4.2,3-6.8,3c-1.2,0-2.2-0.2-3.2-0.6c-1-0.4-2-1.1-3-2v9.5h-5v-27.6H657.7z M663,184.3
				c-1.6,0-2.9,0.5-4,1.6c-1.1,1.1-1.6,2.5-1.6,4.3c0,1.8,0.5,3.2,1.6,4.4c1.1,1.1,2.4,1.7,4,1.7c1.5,0,2.8-0.6,3.9-1.7
				c1.1-1.1,1.6-2.6,1.6-4.3c0-1.7-0.5-3.2-1.6-4.3C665.9,184.8,664.6,184.3,663,184.3z"/>
			<path class="st1" d="M682.8,180.1v2.2c0.9-0.9,1.9-1.6,3-2.1c1.1-0.5,2.2-0.7,3.4-0.7c2.6,0,4.9,1,6.7,3c1.8,2,2.8,4.5,2.8,7.7
				c0,3-1,5.5-2.9,7.5c-1.9,2-4.2,3-6.8,3c-1.2,0-2.2-0.2-3.2-0.6c-1-0.4-2-1.1-3-2v9.5h-5v-27.6H682.8z M688.1,184.3
				c-1.6,0-2.9,0.5-4,1.6c-1.1,1.1-1.6,2.5-1.6,4.3c0,1.8,0.5,3.2,1.6,4.4c1.1,1.1,2.4,1.7,4,1.7c1.5,0,2.8-0.6,3.9-1.7
				c1.1-1.1,1.6-2.6,1.6-4.3c0-1.7-0.5-3.2-1.6-4.3C691,184.8,689.7,184.3,688.1,184.3z"/>
			<path class="st1" d="M704.8,171.8c0.9,0,1.6,0.3,2.3,1c0.6,0.6,1,1.4,1,2.3c0,0.9-0.3,1.7-0.9,2.3c-0.6,0.6-1.4,1-2.3,1
				c-0.9,0-1.7-0.3-2.3-1c-0.6-0.6-1-1.4-1-2.4c0-0.9,0.3-1.7,0.9-2.3S703.9,171.8,704.8,171.8z M702.3,180.1h5.1v20.2h-5.1V180.1z"
				/>
			<path class="st1" d="M711.9,180.1h5.1v2.1c1.1-1,2.2-1.6,3.1-2c0.9-0.4,1.9-0.6,2.9-0.6c2,0,3.7,0.7,5.1,2.1
				c1.2,1.2,1.8,2.9,1.8,5.3v13.3h-5v-8.8c0-2.4-0.1-4-0.3-4.8s-0.6-1.4-1.1-1.8s-1.2-0.6-2-0.6c-1,0-1.9,0.3-2.6,1
				c-0.7,0.7-1.2,1.6-1.5,2.8c-0.1,0.6-0.2,2-0.2,4.1v8.1h-5.1V180.1z"/>
			<path class="st1" d="M749.7,180.1h5v17.3c0,3.4-0.7,5.9-2.1,7.5c-1.8,2.2-4.6,3.3-8.3,3.3c-2,0-3.6-0.2-5-0.7
				c-1.3-0.5-2.5-1.2-3.4-2.2c-0.9-1-1.6-2.1-2.1-3.5h5.6c0.5,0.6,1.1,1,1.9,1.3c0.8,0.3,1.7,0.4,2.8,0.4c1.4,0,2.5-0.2,3.3-0.6
				c0.8-0.4,1.4-1,1.8-1.6c0.3-0.7,0.5-1.8,0.5-3.5c-0.9,0.9-1.8,1.5-2.8,1.9c-1,0.4-2.1,0.6-3.3,0.6c-2.7,0-5-1-6.9-2.9
				c-1.9-2-2.8-4.4-2.8-7.4c0-3.2,1-5.8,3-7.7c1.8-1.8,3.9-2.6,6.4-2.6c1.2,0,2.3,0.2,3.3,0.6c1,0.4,2.1,1.1,3.1,2.1V180.1z
				 M744.4,184.3c-1.6,0-2.9,0.5-4,1.6c-1,1.1-1.6,2.4-1.6,4c0,1.7,0.5,3.1,1.6,4.1c1.1,1.1,2.4,1.6,4,1.6c1.6,0,2.9-0.5,3.9-1.6
				c1-1.1,1.5-2.4,1.5-4.1c0-1.7-0.5-3-1.5-4.1C747.3,184.9,746,184.3,744.4,184.3z"/>
		</g>
	</g>
	<g>
		<radialGradient id="SVGID_1_" cx="82.3301" cy="11.3658" r="154.0028" gradientUnits="userSpaceOnUse">
			<stop  offset="0" style="stop-color:#FFFFFF"/>
			<stop  offset="0.5" style="stop-color:#F7B525"/>
			<stop  offset="1" style="stop-color:#C71B23"/>
		</radialGradient>
		<path class="st2" d="M109.6,92.3c-3,0.5-4.9,3.6-4.1,6.9c0.8,3.4,4.2,5.6,7.3,4.9c3-0.7,4.7-3.9,3.8-7.1
			C115.6,93.8,112.6,91.7,109.6,92.3z M112.5,102.9c-2.5,0.6-5.2-1.2-5.9-3.9c-0.4-1.4-0.1-2.8,0.6-3.9c-0.2,0.8-0.2,1.6,0,2.4
			c0.7,2.7,3.4,4.5,5.9,3.9c1-0.2,1.9-0.8,2.4-1.6C115.2,101.3,114,102.5,112.5,102.9z M107.9,86.4c2.9-0.4,4.6-3.1,3.7-6
			c-0.8-2.8-3.7-4.8-6.6-4.5c-2.9,0.3-4.8,2.9-4.1,5.8C101.7,84.8,104.9,86.9,107.9,86.4z M102.5,78.9c-0.1,0.5-0.1,1.1,0.1,1.6
			c0.6,2.3,3,4,5.4,3.6c1.2-0.2,2.1-0.8,2.6-1.7c-0.2,1.5-1.4,2.6-3,2.9c-2.3,0.3-4.8-1.3-5.4-3.6C101.9,80.7,102,79.7,102.5,78.9z
			 M105.9,89.9c-0.8-3.1-3.9-5.2-6.9-4.8c-3.2,0.5-5.2,3.4-4.5,6.7c0.7,3.3,4,5.6,7.3,5C104.9,96.2,106.7,93,105.9,89.9z
			 M101.4,95.5c-2.6,0.5-5.1-1.3-5.7-3.9c-0.3-1.4,0-2.6,0.7-3.6c-0.2,0.7-0.2,1.5-0.1,2.3c0.6,2.6,3.2,4.4,5.7,3.9
			c1.1-0.2,2-0.8,2.6-1.7C104.2,94,103,95.2,101.4,95.5z M115,82.6c-2.7,0.4-4.4,3.1-3.5,6.2c0.8,3.1,3.9,5.2,6.7,4.7
			c2.7-0.5,4.2-3.4,3.2-6.3C120.5,84.2,117.7,82.3,115,82.6z M117.8,92.2c-2.2,0.4-4.5-1.2-5.1-3.6c-0.2-0.9-0.2-1.7,0-2.4
			c0.2,2.6,2.7,5,5.3,4.5c1.3-0.2,2.2-1.1,2.5-2.3C120.6,90.3,119.6,91.9,117.8,92.2z M90.9,105.5l1.7,5.4c-0.5,0-1.1,0.1-1.6,0.1
			l-1.2-3.7c-3.2,0.4-6.4,1.1-9.4,2.2l-0.3-1.4C83.3,106.7,86.9,105.8,90.9,105.5z M62.7,93.4l-9.6,3.4l-3.4-9.6
			c3.7-0.1,6.8,0.9,10.1,2.9c-4.5-3.8-10.9-5.2-16.9-3.1c-1.6,0.6-3,1.3-4.3,2.2c-1.8,2.3-3.6,4.5-5.5,6.6c-1.9,4-2.3,8.6-0.7,13.1
			c3.2,9,13,13.6,22,10.5c6-2.1,10.1-7.2,11.2-13.1c-1.2,3.4-3.3,6.3-6.1,8.3l-3.3-9.3l9.6-3.4L62.7,93.4z M44.7,88.4l3.6,10.1
			l-1.9,0.7L42.8,89C43.4,88.8,44,88.6,44.7,88.4z M41,89.7l3.6,10.1l-10.2,3.6C34.1,98.1,36.6,92.9,41,89.7z M37.4,112l10.2-3.6
			l3.6,10.1C45.8,118.8,40.6,116.3,37.4,112z M57.6,114.8l0.2,0.7c-1.4,1.1-3.1,1.9-4.8,2.4L48.8,106l-12.3,4.3
			c-0.9-1.5-1.5-3.3-1.8-5l1.8-0.6c0.3,1.3,0.9,2.7,1.5,3.9l12.3-4.4l4.2,11.9C55.6,115.8,56.6,115.4,57.6,114.8z M55.7,103.5
			l-0.4-1.1l7.7-2.7l0.4,1.1L55.7,103.5z"/>
		<g>
			<path class="st3" d="M33.3,169.4c-5.2-1.9-7.6-10.3-7.6-21c0-5.4-0.1-23.2,0.1-29.8c8.1,8.8,17.9,10.8,29.3,6.2
				c-14.8,3.8-29-7.5-29-22.5c0-4,1.4-9.1,3.3-12.7c-6.3,7.7-5.8,9.6-6.5,19.1c-1,14.5-1.2,29.1-1.6,43.6c-0.3,8.2,1.7,20,11,22.4
				c11,2.9,20.1-8.6,23-18c1.6-5,3-10.1,4.4-15.1C51.7,166.7,41.4,172.4,33.3,169.4z"/>
			<path class="st3" d="M137.7,120.6c3.8,12-8.3,11.5-14.5,5.7c-2.4-2.3-7.8-6.4-11.3-9.3l6.9-4.4c-2.8,1-10.5,4-13.3,5.1
				c6.1,3.8,11.8,9,16.7,13.8c4.6,4.5,15.2,8.1,19.4,1.7c3.9-5.9-12.9-33.9-16.2-40.2C130.3,103.3,135.3,113,137.7,120.6z"/>
			<path class="st3" d="M71.5,96l1.8-13.3c4.5-2.9,10.7-4.7,17.3-6.3c-7.7,1.1-14.7,2.3-22,4.9C69.8,84.4,71.3,92,71.5,96z"/>
			<path class="st3" d="M103.3,98.3c-4.5,2.1-9.8-0.9-10.9-5.7c-0.4-2,0-4,1-5.6c-2.2,1.6-3.3,4.5-2.7,7.4c1,4.8,6.4,7.8,10.9,5.7
				c0.1,4.7,4.7,8.8,9.5,7.7c1.8-0.4,3.2-1.5,4.2-2.9c-0.7,0.5-1.5,0.9-2.5,1.1C108,107.1,103.5,103,103.3,98.3z"/>
			<path class="st3" d="M38.9,82.8c9.6-5,20.4-3.2,27.4,7.7C58.5,71.6,48.1,75.8,38.9,82.8z"/>
		</g>
		<g>
			<path class="st4" d="M6.4,122.8c4.4-4.2,8.8-8.4,13.1-12.6c-0.6,9-0.9,20.6-1.2,31l-9.5-6.3C4.8,132.2,3,126.1,6.4,122.8z
				 M132.5,99.4c4.2,8.4,8.3,16.8,12.2,25.4c4.2,9.2-2.7,15.6-11.4,15.2c-11.5-0.5-22.6-17.2-35.5-22.5c4-1.8,8-3.4,12.2-5
				c-13.8,1.9-26.2,4.8-39,10.6c0.3-5.3,0.7-10.5,1.1-15.8c-4.6,16.8-8.5,33.8-13.7,50.4c-3.1,9.9-10.7,19.8-21.7,20.7
				c-6.1,0.5-12-2.3-15.5-8.8c5.7,19.6,29.5,13,38.3-0.9c4.7,3.2,9,1.6,12.8-2.2c11.1-10.8,21.5-23.3,30.5-37
				c8.1,1.2,18.4,16,30.8,16.1c13.2,0,18.7-10.1,13.2-22.1L132.5,99.4z"/>
			<linearGradient id="SVGID_2_" gradientUnits="userSpaceOnUse" x1="80.2394" y1="186.0909" x2="80.2394" y2="130.8727">
				<stop  offset="0" style="stop-color:#FFFFFF"/>
				<stop  offset="1" style="stop-color:#FFFFFF;stop-opacity:0"/>
			</linearGradient>
			<path class="st5" d="M68.3,141c-1.9,7.2-4,16.3-7.1,23c3.4,2.3,4.8,2.1,7.8-0.9c11.2-10.9,21.2-23.1,29.8-36.2l0.4-0.7
				C79.8,151.5,67.4,155.7,68.3,141z"/>
		</g>
		<g>
			<radialGradient id="SVGID_3_" cx="92.0057" cy="-91.5222" r="266.7977" gradientUnits="userSpaceOnUse">
				<stop  offset="0" style="stop-color:#FFFFFF"/>
				<stop  offset="0.5" style="stop-color:#F7B525"/>
				<stop  offset="1" style="stop-color:#C71B23"/>
			</radialGradient>
			<path class="st6" d="M85.2,56.6c-3.6,0.7-8.6,2.5-10.8,5.7c-0.9,1.2-1.2,2.6-1,3.9c-0.8,0.1-1.8,0.1-1.8,1.2l0.6,9.8
				c-2.2,0.6-4.3,1.2-6.4,1.9c-6.8-11.1-21.3-7.5-29.6-0.8c3.8-4.2,8.4-6.9,13.6-8.3c-2.6-1.9-3.9-2.9-7.3-1.6
				c-4.5,1.7-8.9,3.7-13.1,7.2c-1.4,1.2-2.6,2.5-2.7,4.3l-0.5,8.6c-5.5,6.7-5.9,9.9-6.4,17.2c-0.9-7.7-2.9-11,3.1-18.5l0.5-7.6
				c0.2-2.9,1.8-4.9,4-6.7c4.3-3.6,8.9-5.8,14.1-7.7c5.1-1.9,7.3-0.3,11.3,2.6c3.3-6.4,5.8-12.9,7.9-19.8c5.4,2.6,11.8,2.6,17.6,1.1
				C89.7,45.9,101.2,53.4,85.2,56.6z M122.3,26.6c-0.3-1.1-0.7-2.1-1.3-2.9c0.2,5.5-1,11.5-3.6,16.4c1.8,5.3-1.3,11-6.8,12.4
				c-5.1,1.3-10.3-1.9-11.6-7c-1.3-5.1,1.9-10.3,7-11.6c2-0.5,4-0.3,5.8,0.4c-1.1,2.8-2.7,5.5-4.8,7.3c-0.9,0.7-1.1,2.1-0.3,3
				c0.8,0.9,2.1,1.1,3,0.3c5-4.1,7.5-11.2,8.1-17.5c0.7-8.2-2.3-21.8-12.4-22.6c-9.9-0.8-15.2,11.6-16,19.8l4.6-1.6
				c0.9-5.1,4.6-14.4,11-13.8c4.9,0.4,7.2,5.9,8.1,11.1c-1,0.1-2,0.3-2.9,0.6l-34.3,12C68.9,35.1,65.5,37,63,41.5
				c-4-0.2-7.5-2.2-10.6-5.4c4.8,10.2,14.9,11.5,25.1,9.6c19.6-5.2,27,10.3,8.4,14c-2.6,0.5-7.1,2-8.8,4.3c-0.4,0.6-0.6,1.1-0.4,1.6
				c0.8-0.1,1.9-0.5,2.3,0.6l0.4,1.2l-5.5,1.1l5.9,0l0.5,1.3L74.3,71l6.3,0l0.4,1.2l-6.3,1.2l6.8,0L82,75c4.7-0.8,11-1.5,16-1.6
				c-1.5-0.2-4.8-0.9-6.3-1.1c0.6-6.3,5.8-6.5,11.7-5.9c-4.5-1.2-9.1-1.1-11.3,1.1c0.1-2.2-0.2-3.9,2.7-4.2
				c3.9-0.4,7.8-0.1,11.7,1.1c3.8,1.2,3.6,1.6,5.9,4.6c7.1,4,9.2,9.3,12.7,16c1.1-3.1,2.1-6.3,3-9.5c2.3-7.9,3.5-9.6,1.7-17.2
				L122.3,26.6z"/>
			<linearGradient id="SVGID_4_" gradientUnits="userSpaceOnUse" x1="89.5028" y1="9.9438" x2="89.5028" y2="41.8258">
				<stop  offset="0" style="stop-color:#FFFFFF"/>
				<stop  offset="1" style="stop-color:#FFFFFF;stop-opacity:0"/>
			</linearGradient>
			<path class="st7" d="M68.8,41.7c2.5,0.1,5.1-0.1,7.7-0.6c3-0.8,6.3-1.3,9.5-1.2c6-5.2,14.2-9.9,24.2-14.1L77.4,37.2
				C74.2,38.3,71,39.3,68.8,41.7z"/>
		</g>
	</g>
</g>
</svg>
